<svg xmlns="http://www.w3.org/2000/svg" width="25.803" height="18.388" viewBox="0 0 25.803 18.388">
  <g id="Grupo_283" data-name="Grupo 283" transform="translate(0 0)">
    <path id="Trazado_441" data-name="Trazado 441" d="M136.1,29.5s-8.156,0-10.084.593a3.039,3.039,0,0,0-2.224,2.373,31.081,31.081,0,0,0-.593,6.228,30.292,30.292,0,0,0,.593,6.228,3.56,3.56,0,0,0,2.224,2.373c2.076.593,10.084.593,10.084.593s8.156,0,10.084-.593a3.28,3.28,0,0,0,2.224-2.373A31.082,31.082,0,0,0,149,38.694a30.293,30.293,0,0,0-.593-6.228,3.561,3.561,0,0,0-2.224-2.373C144.258,29.5,136.1,29.5,136.1,29.5Zm-2.669,13.05V34.839l6.821,3.856Z" transform="translate(-123.2 -29.5)" fill="#fff"/>
  </g>
</svg>
