<svg xmlns="http://www.w3.org/2000/svg" width="25.506" height="20.761" viewBox="0 0 25.506 20.761">
  <g id="Grupo_284" data-name="Grupo 284" transform="translate(0 0)">
    <path id="Trazado_442" data-name="Trazado 442" d="M24.617,28.7a12.587,12.587,0,0,1-3.262,1.335,5.23,5.23,0,0,0-8.9,4.745A14.076,14.076,0,0,1,1.78,29.29a5.228,5.228,0,0,0,1.631,6.97,6.217,6.217,0,0,1-2.373-.593,5.357,5.357,0,0,0,4.152,5.19A6.218,6.218,0,0,1,2.818,41a4.986,4.986,0,0,0,4.894,3.559A10.349,10.349,0,0,1,0,46.788a14.916,14.916,0,0,0,8.008,2.373A14.767,14.767,0,0,0,22.837,33.739a11.4,11.4,0,0,0,2.669-2.669,9.842,9.842,0,0,1-2.966.89A8.69,8.69,0,0,0,24.617,28.7Z" transform="translate(0 -28.4)" fill="#fff"/>
  </g>
</svg>
