<svg xmlns="http://www.w3.org/2000/svg" width="170.4" height="66.8" viewBox="0 0 170.4 66.8">
  <g id="Grupo_314" data-name="Grupo 314" transform="translate(0)">
    <g id="Grupo_312" data-name="Grupo 312" transform="translate(0 13.2)">
      <g id="Grupo_290" data-name="Grupo 290" transform="translate(0 3.3)">
        <g id="Grupo_289" data-name="Grupo 289">
          <path id="Trazado_447" data-name="Trazado 447" d="M.1,40.8A1.9,1.9,0,0,1,2,38.9H3.5a1.9,1.9,0,0,1,1.9,1.9v.7c0,2.5.5,3.7,1.2,4.4a3.062,3.062,0,0,0,2.2.7c2.2,0,3.4-.9,3.4-3.7,0-2.5-2.4-4.4-5-6.4v.1C3.7,33.9.1,31,.1,25.8c0-5.9,3.1-9.3,8.7-9.3,5.7,0,8.7,3.6,8.7,10.3v.7a1.839,1.839,0,0,1-1.9,1.9H14a1.9,1.9,0,0,1-1.9-1.9v-.7c0-3.5-1.1-5-3.4-5-2.2,0-3.4,1.2-3.4,3.9s2.6,4.7,5.1,6.7h-.1c3.5,2.7,7,5.4,7,10.4,0,5.9-3.1,9-8.7,9q-8.7,0-8.7-10.2v-.8Z" transform="translate(0.1 -16.5)" fill="#f2f2f2"/>
        </g>
      </g>
      <g id="Grupo_292" data-name="Grupo 292" transform="translate(20.7 3.1)">
        <g id="Grupo_291" data-name="Grupo 291">
          <path id="Trazado_448" data-name="Trazado 448" d="M20.6,18.2a1.88,1.88,0,0,1,1.8-1.9h1.5a1.9,1.9,0,0,1,1.9,1.9V42.1c0,2.8.8,4.4,3.4,4.4,2.7,0,3.4-1.9,3.4-4.4V18.2a1.88,1.88,0,0,1,1.8-1.9h1.5a1.9,1.9,0,0,1,1.9,1.9V42.1c0,5.9-2.5,9.6-8.6,9.6-6.3,0-8.6-4-8.6-9.6V18.2Z" transform="translate(-20.6 -16.3)" fill="#f2f2f2"/>
        </g>
      </g>
      <g id="Grupo_294" data-name="Grupo 294" transform="translate(42.6 3.1)">
        <g id="Grupo_293" data-name="Grupo 293">
          <path id="Trazado_449" data-name="Trazado 449" d="M59.3,49.8a1.9,1.9,0,0,1-1.9,1.9H56a1.9,1.9,0,0,1-1.9-1.9V41c0-2.6-1.5-4.1-4-4.1H47.7V49.8a1.88,1.88,0,0,1-1.8,1.9H44.4a1.839,1.839,0,0,1-1.9-1.9V18.2a1.9,1.9,0,0,1,1.9-1.9H51c6.5,0,8.7,3.3,8.7,10.3,0,3.3-.6,5.9-2.2,7.5l-.4.4A9.2,9.2,0,0,1,59.4,41v8.8ZM47.7,31.7H50c2.9,0,4.5-1.5,4.5-5,0-3.6-.8-5-3.5-5H47.7Z" transform="translate(-42.5 -16.3)" fill="#f2f2f2"/>
        </g>
      </g>
      <g id="Grupo_296" data-name="Grupo 296" transform="translate(63.2 3.2)">
        <g id="Grupo_295" data-name="Grupo 295">
          <path id="Trazado_450" data-name="Trazado 450" d="M76.3,16.4a1.9,1.9,0,0,1,1.9,1.9v1.4a1.9,1.9,0,0,1-1.9,1.9h-8v9.9h5.9a1.9,1.9,0,0,1,1.9,1.9v1.4a1.9,1.9,0,0,1-1.9,1.9H68.3V49.9a1.967,1.967,0,0,1-1.9,1.9H65a1.9,1.9,0,0,1-1.9-1.9V18.3A1.9,1.9,0,0,1,65,16.4Z" transform="translate(-63.1 -16.4)" fill="#f2f2f2"/>
        </g>
      </g>
      <g id="Grupo_298" data-name="Grupo 298" transform="translate(81.9 3.2)">
        <g id="Grupo_297" data-name="Grupo 297">
          <path id="Trazado_451" data-name="Trazado 451" d="M87,22.4a1.9,1.9,0,0,1-1.9,1.9H83.6a1.817,1.817,0,0,1-1.8-1.9V18.3a1.88,1.88,0,0,1,1.8-1.9h1.5A1.839,1.839,0,0,1,87,18.3Z" transform="translate(-81.8 -16.4)" fill="#f2f2f2"/>
        </g>
      </g>
      <g id="Grupo_300" data-name="Grupo 300" transform="translate(162.8 18.8)">
        <g id="Grupo_299" data-name="Grupo 299">
          <path id="Trazado_452" data-name="Trazado 452" d="M167.9,38a1.9,1.9,0,0,1-1.9,1.9h-1.5a1.817,1.817,0,0,1-1.8-1.9V33.9a1.88,1.88,0,0,1,1.8-1.9H166a1.839,1.839,0,0,1,1.9,1.9Z" transform="translate(-162.7 -32)" fill="#f2f2f2"/>
        </g>
      </g>
      <g id="Grupo_302" data-name="Grupo 302" transform="translate(89 3.3)">
        <g id="Grupo_301" data-name="Grupo 301">
          <path id="Trazado_453" data-name="Trazado 453" d="M89,40.8a1.9,1.9,0,0,1,1.9-1.9h1.5a1.9,1.9,0,0,1,1.9,1.9v.7c0,2.5.5,3.7,1.2,4.4a3.062,3.062,0,0,0,2.2.7c2.2,0,3.4-.9,3.4-3.7,0-2.5-2.4-4.4-5-6.4v.1C92.6,33.9,89,31,89,25.8c0-5.9,3.1-9.3,8.7-9.3,5.7,0,8.7,3.6,8.7,10.3v.7a1.839,1.839,0,0,1-1.9,1.9H103a1.9,1.9,0,0,1-1.9-1.9v-.7c0-3.5-1.1-5-3.4-5-2.2,0-3.4,1.2-3.4,3.9s2.6,4.7,5.1,6.7h-.1c3.5,2.7,7,5.4,7,10.4,0,5.9-3.1,9-8.7,9q-8.7,0-8.7-10.2v-.8Z" transform="translate(-88.9 -16.5)" fill="#f2f2f2"/>
        </g>
      </g>
      <g id="Grupo_304" data-name="Grupo 304" transform="translate(120.6)">
        <g id="Grupo_303" data-name="Grupo 303">
          <path id="Trazado_454" data-name="Trazado 454" d="M120.5,15.1a1.88,1.88,0,0,1,1.8-1.9h1.5a1.9,1.9,0,0,1,1.9,1.9V30.3c0,2.8.8,4.4,3.4,4.4,2.7,0,3.4-1.9,3.4-4.4V15.1a1.88,1.88,0,0,1,1.8-1.9h1.5a1.839,1.839,0,0,1,1.9,1.9V30.3c0,5.9-2.5,9.6-8.6,9.6-6.3,0-8.6-4-8.6-9.6V15.1Z" transform="translate(-120.5 -13.2)" fill="#f2f2f2"/>
        </g>
      </g>
      <g id="Grupo_306" data-name="Grupo 306" transform="translate(142.5 0.1)">
        <g id="Grupo_305" data-name="Grupo 305">
          <path id="Trazado_455" data-name="Trazado 455" d="M147.6,33.5V38a1.88,1.88,0,0,1-1.8,1.9h-1.5a1.9,1.9,0,0,1-1.9-1.9V15.2a1.9,1.9,0,0,1,1.9-1.9H150c6.4,0,9.2,3.4,9.2,10.1,0,6.8-2.8,10.1-9.2,10.1Zm0-15v9.9H150c2.8,0,4-1.5,4-4.9,0-3.5-1.2-4.9-4-4.9h-2.4Z" transform="translate(-142.4 -13.3)" fill="#f2f2f2"/>
        </g>
      </g>
      <g id="Grupo_308" data-name="Grupo 308" transform="translate(162.5)">
        <g id="Grupo_307" data-name="Grupo 307">
          <path id="Trazado_456" data-name="Trazado 456" d="M167.6,27.9a1.9,1.9,0,0,1-1.9,1.9h-1.5a1.88,1.88,0,0,1-1.8-1.9V15.1a1.88,1.88,0,0,1,1.8-1.9h1.5a1.9,1.9,0,0,1,1.9,1.9Z" transform="translate(-162.4 -13.2)" fill="#f2f2f2"/>
        </g>
      </g>
      <g id="Grupo_310" data-name="Grupo 310" transform="translate(118.9 29.9)">
        <g id="Grupo_309" data-name="Grupo 309">
          <path id="Trazado_457" data-name="Trazado 457" d="M167.6,51.9c-2.9,0-4.4-1.8-5.4-3.1-1-1.2-1.4-1.7-2.4-1.7-.9,0-1.4.4-2.4,1.7-1.1,1.3-2.5,3.1-5.4,3.1s-4.4-1.8-5.4-3.1c-1-1.2-1.4-1.7-2.4-1.7-.9,0-1.4.4-2.4,1.7-1.1,1.3-2.5,3.1-5.4,3.1s-4.4-1.8-5.4-3.1c-1-1.2-1.4-1.7-2.4-1.7s-1.4.4-2.4,1.7c-1.1,1.3-2.5,3.1-5.4,3.1a2,2,0,0,1,0-4c.9,0,1.4-.4,2.4-1.7,1.1-1.3,2.5-3.1,5.4-3.1s4.4,1.8,5.4,3.1c1,1.2,1.4,1.7,2.4,1.7.9,0,1.4-.4,2.4-1.7,1.1-1.3,2.5-3.1,5.4-3.1s4.4,1.8,5.4,3.1c1,1.2,1.4,1.7,2.4,1.7.9,0,1.4-.4,2.4-1.7,1.1-1.3,2.5-3.1,5.4-3.1s4.4,1.8,5.4,3.1c1,1.2,1.4,1.7,2.4,1.7a2,2,0,0,1,0,4Z" transform="translate(-118.8 -43.1)" fill="#f2f2f2"/>
        </g>
      </g>
      <g id="Grupo_311" data-name="Grupo 311" transform="translate(0.1 46.5)">
        <path id="Trazado_458" data-name="Trazado 458" d="M0,61.7a2.07,2.07,0,0,1,.5-1.5,1.5,1.5,0,0,1,1.1-.4,1.5,1.5,0,0,1,1.1.4,2.07,2.07,0,0,1,.5,1.5v.1a.446.446,0,0,1-.3.4H2.6a.43.43,0,0,1-.4-.4v-.1c0-.7-.2-.9-.6-.9s-.6.3-.6.9v2.8c0,.7.2,1,.6,1a.764.764,0,0,0,.5-.2,1.549,1.549,0,0,0,.2-.8v-.1a.43.43,0,0,1,.4-.4H3c.2,0,.3.2.3.4v.1A1.91,1.91,0,0,1,2.8,66a1.5,1.5,0,0,1-1.1.4A1.5,1.5,0,0,1,.6,66,1.637,1.637,0,0,1,0,64.5Z" transform="translate(0 -59.7)" fill="#f2f2f2"/>
        <path id="Trazado_459" data-name="Trazado 459" d="M9.2,64.6h-1l-.3,1.5a.451.451,0,0,1-.3.3H7.2c-.2,0-.4-.2-.3-.4l.5-2.1.9-3.8a.451.451,0,0,1,.3-.3h.2a.319.319,0,0,1,.3.3L10.5,66c0,.2-.1.4-.3.4H9.9a.319.319,0,0,1-.3-.3Zm-.8-.9H9c-.1-.5-.1-.7-.3-1.6Z" transform="translate(0 -59.7)" fill="#f2f2f2"/>
        <path id="Trazado_460" data-name="Trazado 460" d="M13.1,60.2a.43.43,0,0,1,.4-.4h2.6a.43.43,0,0,1,.4.4v.3a.43.43,0,0,1-.4.4h-.8v5.3a.43.43,0,0,1-.4.4h-.3a.43.43,0,0,1-.4-.4V60.9h-.8a.43.43,0,0,1-.4-.4v-.3Z" transform="translate(0 -59.7)" fill="#f2f2f2"/>
        <path id="Trazado_461" data-name="Trazado 461" d="M19.6,61.7a2.07,2.07,0,0,1,.5-1.5,1.712,1.712,0,0,1,2.2,0,2.07,2.07,0,0,1,.5,1.5v.1a.446.446,0,0,1-.3.4h-.3a.43.43,0,0,1-.4-.4v-.1c0-.7-.2-.9-.6-.9s-.6.3-.6.9v2.8c0,.7.2,1,.6,1a.764.764,0,0,0,.5-.2,1.549,1.549,0,0,0,.2-.8v-.1a.43.43,0,0,1,.4-.4h.3c.2,0,.3.2.3.4v.1a1.91,1.91,0,0,1-.5,1.5,1.712,1.712,0,0,1-2.2,0,2.07,2.07,0,0,1-.5-1.5V61.7Z" transform="translate(0 -59.7)" fill="#f2f2f2"/>
        <path id="Trazado_462" data-name="Trazado 462" d="M28.5,62.6V60.1a.43.43,0,0,1,.4-.4h.3a.43.43,0,0,1,.4.4V66a.43.43,0,0,1-.4.4h-.3a.43.43,0,0,1-.4-.4V63.5H27.4V66a.43.43,0,0,1-.4.4h-.3a.43.43,0,0,1-.4-.4V60.1a.43.43,0,0,1,.4-.4H27a.43.43,0,0,1,.4.4v2.5Z" transform="translate(0 -59.7)" fill="#f2f2f2"/>
        <path id="Trazado_463" data-name="Trazado 463" d="M38.2,60.2a.43.43,0,0,1,.4-.4h2.6a.43.43,0,0,1,.4.4v.3a.43.43,0,0,1-.4.4h-.8v5.3a.43.43,0,0,1-.4.4h-.3a.43.43,0,0,1-.4-.4V60.9h-.8a.43.43,0,0,1-.4-.4v-.3Z" transform="translate(0 -59.7)" fill="#f2f2f2"/>
        <path id="Trazado_464" data-name="Trazado 464" d="M46.8,62.6V60.1a.43.43,0,0,1,.4-.4h.3a.43.43,0,0,1,.4.4V66a.43.43,0,0,1-.4.4h-.3a.43.43,0,0,1-.4-.4V63.5H45.7V66a.43.43,0,0,1-.4.4H45a.43.43,0,0,1-.4-.4V60.1a.43.43,0,0,1,.4-.4h.3a.43.43,0,0,1,.4.4v2.5Z" transform="translate(0 -59.7)" fill="#f2f2f2"/>
        <path id="Trazado_465" data-name="Trazado 465" d="M54.1,59.8a.43.43,0,0,1,.4.4v.3a.43.43,0,0,1-.4.4H52.6v1.8h1.2a.43.43,0,0,1,.4.4v.3a.43.43,0,0,1-.4.4H52.6v1.9h1.5a.43.43,0,0,1,.4.4v.3a.43.43,0,0,1-.4.4H52a.43.43,0,0,1-.4-.4V60.5a.43.43,0,0,1,.4-.4h2.1Z" transform="translate(0 -59.7)" fill="#f2f2f2"/>
        <path id="Trazado_466" data-name="Trazado 466" d="M65.7,66.4c-.1,0-.3-.1-.3-.2L64,62.8V66a.43.43,0,0,1-.4.4h-.3a.43.43,0,0,1-.4-.4V60.1a.43.43,0,0,1,.4-.4h.2c.1,0,.3.1.3.2l1.4,3.4V60.1a.43.43,0,0,1,.4-.4h.3a.43.43,0,0,1,.4.4V66a.43.43,0,0,1-.4.4Z" transform="translate(0 -59.7)" fill="#f2f2f2"/>
        <path id="Trazado_467" data-name="Trazado 467" d="M72.5,59.8a.43.43,0,0,1,.4.4v.3a.43.43,0,0,1-.4.4H71v1.8h1.2a.43.43,0,0,1,.4.4v.3a.43.43,0,0,1-.4.4H71v1.9h1.5a.43.43,0,0,1,.4.4v.3a.43.43,0,0,1-.4.4H70.4a.43.43,0,0,1-.4-.4V60.5a.43.43,0,0,1,.4-.4h2.1Z" transform="translate(0 -59.7)" fill="#f2f2f2"/>
        <path id="Trazado_468" data-name="Trazado 468" d="M77.3,66.2c0,.1-.2.2-.3.2h-.3a.338.338,0,0,1-.3-.5l1.3-2.8-1.3-2.8a.338.338,0,0,1,.3-.5H77c.1,0,.3.1.3.2l.9,1.9c.3-.6.6-1.3.9-1.9,0-.1.2-.2.3-.2h.3a.338.338,0,0,1,.3.5l-1.3,2.8L80,65.9a.338.338,0,0,1-.3.5h-.3c-.1,0-.3-.1-.3-.2l-.9-2Z" transform="translate(0 -59.7)" fill="#f2f2f2"/>
        <path id="Trazado_469" data-name="Trazado 469" d="M83.7,60.2a.43.43,0,0,1,.4-.4h2.6a.43.43,0,0,1,.4.4v.3a.43.43,0,0,1-.4.4h-.8v5.3a.43.43,0,0,1-.4.4h-.3a.43.43,0,0,1-.4-.4V60.9H84a.43.43,0,0,1-.4-.4v-.3Z" transform="translate(0 -59.7)" fill="#f2f2f2"/>
        <path id="Trazado_470" data-name="Trazado 470" d="M95.6,60.2a.43.43,0,0,1,.4-.4h2.6a.43.43,0,0,1,.4.4v.3a.43.43,0,0,1-.4.4h-.8v5.3a.43.43,0,0,1-.4.4h-.3a.43.43,0,0,1-.4-.4V60.9h-.8a.43.43,0,0,1-.4-.4v-.3Z" transform="translate(0 -59.7)" fill="#f2f2f2"/>
        <path id="Trazado_471" data-name="Trazado 471" d="M105.7,66.1a.43.43,0,0,1-.4.4H105a.43.43,0,0,1-.4-.4V64.5a.736.736,0,0,0-.8-.8h-.4v2.4a.446.446,0,0,1-.3.4h-.3a.43.43,0,0,1-.4-.4V60.2a.43.43,0,0,1,.4-.4H104c1.2,0,1.6.6,1.6,1.9a1.955,1.955,0,0,1-.4,1.4l-.1.1a1.594,1.594,0,0,1,.4,1.2v1.7Zm-2.2-3.4h.4c.6,0,.8-.3.8-.9s-.1-.9-.7-.9h-.6v1.8Z" transform="translate(0 -59.7)" fill="#f2f2f2"/>
        <path id="Trazado_472" data-name="Trazado 472" d="M111.3,64.6h-1l-.3,1.5a.451.451,0,0,1-.3.3h-.3c-.2,0-.4-.2-.3-.4l.5-2.1.9-3.8a.451.451,0,0,1,.3-.3h.2a.319.319,0,0,1,.3.3l1.4,5.9c0,.2-.1.4-.3.4H112a.319.319,0,0,1-.3-.3Zm-.7-.9h.6c-.1-.5-.1-.7-.3-1.6Z" transform="translate(0 -59.7)" fill="#f2f2f2"/>
        <path id="Trazado_473" data-name="Trazado 473" d="M116.7,66.4a.43.43,0,0,1-.4-.4V60.1a.43.43,0,0,1,.4-.4h1c1.2,0,1.7.7,1.7,1.9v2.7c0,1.3-.6,1.9-1.7,1.9h-1Zm.6-5.6v4.7h.4c.5,0,.7-.3.7-1V61.8c0-.7-.2-1-.7-1Z" transform="translate(0 -59.7)" fill="#f2f2f2"/>
        <path id="Trazado_474" data-name="Trazado 474" d="M124.1,66.1a.43.43,0,0,1-.4.4h-.3a.43.43,0,0,1-.4-.4V60.2a.43.43,0,0,1,.4-.4h.3a.43.43,0,0,1,.4.4Z" transform="translate(0 -59.7)" fill="#f2f2f2"/>
        <path id="Trazado_475" data-name="Trazado 475" d="M130.4,66.4c-.1,0-.3-.1-.3-.2l-1.4-3.4V66a.43.43,0,0,1-.4.4H128a.43.43,0,0,1-.4-.4V60.1a.43.43,0,0,1,.4-.4h.2c.1,0,.3.1.3.2l1.4,3.4V60.1a.43.43,0,0,1,.4-.4h.3a.43.43,0,0,1,.4.4V66a.43.43,0,0,1-.4.4Z" transform="translate(0 -59.7)" fill="#f2f2f2"/>
        <path id="Trazado_476" data-name="Trazado 476" d="M137.6,63.1c.2,0,.3.2.3.4v1.1c0,1.2-.5,1.9-1.6,1.9s-1.6-.7-1.6-1.9V61.8c0-1.2.5-1.9,1.6-1.9s1.6.7,1.6,1.9v.1a.446.446,0,0,1-.3.4h-.3a.43.43,0,0,1-.4-.4v-.1c0-.5-.1-.7-.2-.8a.85.85,0,0,0-.8,0,1.292,1.292,0,0,0-.2.8v2.8q0,.9.6.9t.6-.9v-.4h-.3a.5.5,0,0,1,0-1h1Z" transform="translate(0 -59.7)" fill="#f2f2f2"/>
        <path id="Trazado_477" data-name="Trazado 477" d="M149.9,63.1l.4-3c0-.2.2-.3.4-.3h.3a.43.43,0,0,1,.4.4l-.9,5.9c0,.2-.2.3-.4.3h-.2a.265.265,0,0,1-.3-.3L149,63l-.5,3.1a.319.319,0,0,1-.3.3H148a.265.265,0,0,1-.3-.3l-1-5.9c0-.2.1-.4.3-.4h.3c.2,0,.3.1.4.3l.5,3,.5-3a.319.319,0,0,1,.3-.3h.2a.265.265,0,0,1,.3.3Z" transform="translate(0 -59.7)" fill="#f2f2f2"/>
        <path id="Trazado_478" data-name="Trazado 478" d="M156.3,64.6h-1l-.3,1.5a.451.451,0,0,1-.3.3h-.3c-.2,0-.4-.2-.3-.4l.5-2.1.9-3.8a.451.451,0,0,1,.3-.3h.2a.319.319,0,0,1,.3.3l1.4,5.9c0,.2-.1.4-.3.4H157a.319.319,0,0,1-.3-.3Zm-.7-.9h.6c-.1-.5-.1-.7-.3-1.6Z" transform="translate(0 -59.7)" fill="#f2f2f2"/>
        <path id="Trazado_479" data-name="Trazado 479" d="M162.1,63.8l.9-3.7a.451.451,0,0,1,.3-.3h.3c.2,0,.4.2.3.4l-1.4,5.9a.319.319,0,0,1-.3.3H162a.265.265,0,0,1-.3-.3l-1.4-5.9c-.1-.2.1-.4.3-.4h.3a.319.319,0,0,1,.3.3Z" transform="translate(0 -59.7)" fill="#f2f2f2"/>
        <path id="Trazado_480" data-name="Trazado 480" d="M169.9,59.8a.43.43,0,0,1,.4.4v.3a.43.43,0,0,1-.4.4h-1.5v1.8h1.2a.43.43,0,0,1,.4.4v.3a.43.43,0,0,1-.4.4h-1.2v1.9h1.5a.43.43,0,0,1,.4.4v.3a.43.43,0,0,1-.4.4h-2.1a.43.43,0,0,1-.4-.4V60.5a.43.43,0,0,1,.4-.4h2.1Z" transform="translate(0 -59.7)" fill="#f2f2f2"/>
      </g>
    </g>
    <g id="Grupo_313" data-name="Grupo 313" transform="translate(56.2)">
      <path id="Trazado_481" data-name="Trazado 481" d="M56.2.4a.43.43,0,0,1,.4-.4h2.6a.43.43,0,0,1,.4.4V.7a.43.43,0,0,1-.4.4h-.8V6.4a.43.43,0,0,1-.4.4h-.3a.43.43,0,0,1-.4-.4V1h-.8a.43.43,0,0,1-.4-.4V.4Z" transform="translate(-56.1 0)" fill="#f2f2f2"/>
      <path id="Trazado_482" data-name="Trazado 482" d="M66.3,6.3a.43.43,0,0,1-.4.4h-.3a.43.43,0,0,1-.4-.4V4.6a.736.736,0,0,0-.8-.8H64V6.2a.446.446,0,0,1-.3.4h-.3a.43.43,0,0,1-.4-.4V.4a.43.43,0,0,1,.4-.4h1.2c1.2,0,1.6.6,1.6,1.9a1.955,1.955,0,0,1-.4,1.4l-.1.1a1.594,1.594,0,0,1,.4,1.2V6.3ZM64.1,2.9h.4c.6,0,.8-.3.8-.9s0-1-.6-1h-.6Z" transform="translate(-56.1 0)" fill="#f2f2f2"/>
      <path id="Trazado_483" data-name="Trazado 483" d="M72,4.8H71l-.3,1.5a.451.451,0,0,1-.3.3H70c-.2,0-.4-.2-.3-.4l.5-2.1L71,.3c0-.2.2-.3.4-.3h.2a.319.319,0,0,1,.3.3l1.4,5.9c0,.2-.1.4-.3.4h-.3a.319.319,0,0,1-.3-.3Zm-.8-.9h.6c-.1-.5-.1-.7-.3-1.6Z" transform="translate(-56.1 0)" fill="#f2f2f2"/>
      <path id="Trazado_484" data-name="Trazado 484" d="M77.3,6.6a.43.43,0,0,1-.4-.4V.4a.43.43,0,0,1,.4-.4h1C79.5,0,80,.7,80,2V4.7c0,1.3-.6,1.9-1.7,1.9ZM77.9,1V5.7h.4c.5,0,.7-.3.7-1V2c0-.7-.2-1-.7-1Z" transform="translate(-56.1 0)" fill="#f2f2f2"/>
      <path id="Trazado_485" data-name="Trazado 485" d="M86.2,0a.43.43,0,0,1,.4.4V.7a.43.43,0,0,1-.4.4H84.7V2.9H86a.43.43,0,0,1,.4.4v.3A.43.43,0,0,1,86,4H84.8V5.9h1.5a.43.43,0,0,1,.4.4v.3a.43.43,0,0,1-.4.4H84.2a.43.43,0,0,1-.4-.4V.4a.43.43,0,0,1,.4-.4Z" transform="translate(-56.1 0)" fill="#f2f2f2"/>
      <path id="Trazado_486" data-name="Trazado 486" d="M92.1,4,93,.3a.265.265,0,0,1,.3-.3h.3c.2,0,.4.2.3.4L92.5,6.3a.319.319,0,0,1-.3.3H92a.265.265,0,0,1-.3-.3L90.3.4c-.1-.2,0-.4.3-.4h.3a.319.319,0,0,1,.3.3Z" transform="translate(-56.1 0)" fill="#f2f2f2"/>
      <path id="Trazado_487" data-name="Trazado 487" d="M98.4,6.3a.43.43,0,0,1-.4.4h-.3a.43.43,0,0,1-.4-.4V.4a.43.43,0,0,1,.4-.4H98a.43.43,0,0,1,.4.4Z" transform="translate(-56.1 0)" fill="#f2f2f2"/>
      <path id="Trazado_488" data-name="Trazado 488" d="M104.5,0a.43.43,0,0,1,.4.4V.7a.43.43,0,0,1-.4.4H103V2.9h1.2a.43.43,0,0,1,.4.4v.3a.43.43,0,0,1-.4.4H103V5.9h1.5a.43.43,0,0,1,.4.4v.3a.43.43,0,0,1-.4.4h-2.1a.43.43,0,0,1-.4-.4V.4a.43.43,0,0,1,.4-.4Z" transform="translate(-56.1 0)" fill="#f2f2f2"/>
      <path id="Trazado_489" data-name="Trazado 489" d="M111.7,3.3l.4-3c0-.2.2-.3.4-.3h.3a.43.43,0,0,1,.4.4l-.9,5.9c0,.2-.2.3-.4.3h-.2a.265.265,0,0,1-.3-.3l-.5-3.1-.5,3.1a.319.319,0,0,1-.3.3h-.2a.265.265,0,0,1-.3-.3l-1-5.9c0-.2.1-.4.3-.4h.3c.2,0,.3.1.4.3l.5,3,.5-3a.319.319,0,0,1,.3-.3h.2a.265.265,0,0,1,.3.3Z" transform="translate(-56.1 0)" fill="#f2f2f2"/>
    </g>
  </g>
</svg>
