<svg xmlns="http://www.w3.org/2000/svg" width="22.244" height="21.947" viewBox="0 0 22.244 21.947">
  <g id="XMLID_1_" transform="translate(0 0)">
    <g id="XMLID_3_">
      <rect id="XMLID_5_" width="4.597" height="14.681" transform="translate(0.445 7.266)" fill="#fff"/>
      <path id="XMLID_4_" d="M65.469,33.239A2.669,2.669,0,1,0,62.8,30.569,2.757,2.757,0,0,0,65.469,33.239Z" transform="translate(-62.8 -27.9)" fill="#fff"/>
    </g>
    <path id="XMLID_2_" d="M72.5,39.963c0-2.076.89-3.262,2.818-3.262,1.631,0,2.521,1.186,2.521,3.262v7.711h4.6V38.332c0-4-2.224-5.932-5.339-5.932a5.194,5.194,0,0,0-4.449,2.373V32.845H68.2V47.526h4.449C72.5,47.674,72.5,42.187,72.5,39.963Z" transform="translate(-60.192 -25.727)" fill="#fff"/>
  </g>
</svg>
