<svg xmlns="http://www.w3.org/2000/svg" width="23.727" height="23.727" viewBox="0 0 23.727 23.727">
  <g id="Grupo_286" data-name="Grupo 286" transform="translate(0 0)">
    <path id="Trazado_444" data-name="Trazado 444" d="M116.234,32.1a5.809,5.809,0,0,0-3.411-3.411,11.482,11.482,0,0,0-2.966-.593H100.07a8.067,8.067,0,0,0-2.966.593A5.809,5.809,0,0,0,93.693,32.1,11.483,11.483,0,0,0,93.1,35.07v9.787a8.066,8.066,0,0,0,.593,2.966A5.809,5.809,0,0,0,97.1,51.234a11.483,11.483,0,0,0,2.966.593h9.787a8.067,8.067,0,0,0,2.966-.593,5.809,5.809,0,0,0,3.411-3.411,11.482,11.482,0,0,0,.593-2.966V35.07A11.482,11.482,0,0,0,116.234,32.1Zm-1.631,12.6a5.644,5.644,0,0,1-.445,2.224,2.667,2.667,0,0,1-.89,1.335,3.5,3.5,0,0,1-1.335.89,11.145,11.145,0,0,1-2.224.445H99.921a5.644,5.644,0,0,1-2.224-.445,2.667,2.667,0,0,1-1.335-.89,3.5,3.5,0,0,1-.89-1.335,11.145,11.145,0,0,1-.445-2.224V34.921a5.644,5.644,0,0,1,.445-2.224,2.667,2.667,0,0,1,.89-1.335,3.5,3.5,0,0,1,1.335-.89,11.145,11.145,0,0,1,2.224-.445h9.787a5.645,5.645,0,0,1,2.224.445,2.667,2.667,0,0,1,1.335.89,3.5,3.5,0,0,1,.89,1.335,11.145,11.145,0,0,1,.445,2.224v4.894A24.631,24.631,0,0,1,114.6,44.709Z" transform="translate(-93.1 -28.1)" fill="#fff"/>
    <path id="Trazado_445" data-name="Trazado 445" d="M103.08,31.9a6.08,6.08,0,1,0,6.08,6.08A6.107,6.107,0,0,0,103.08,31.9Zm0,10.084a4,4,0,1,1,4-4A3.987,3.987,0,0,1,103.08,41.984Z" transform="translate(-91.217 -26.265)" fill="#fff"/>
    <path id="Trazado_446" data-name="Trazado 446" d="M105.883,30.8a1.483,1.483,0,1,0,1.483,1.483A1.589,1.589,0,0,0,105.883,30.8Z" transform="translate(-87.643 -26.796)" fill="#fff"/>
  </g>
</svg>
